<?xml version="1.0" encoding="utf-8"?>
<!-- Generator: Adobe Illustrator 21.1.0, SVG Export Plug-In . SVG Version: 6.00 Build 0)  -->
<svg version="1.1" id="Layer_1" xmlns="http://www.w3.org/2000/svg" xmlns:xlink="http://www.w3.org/1999/xlink" x="0px" y="0px"
	 viewBox="0 0 1443 462" style="enable-background:new 0 0 1443 462;" xml:space="preserve">
<style type="text/css">
	.st0{fill:#F7E831;}
</style>
<rect x="42.8" y="181" class="st0" width="1371.1" height="117"/>
<polygon points="51.2,180 45.8,186.1 45.8,180 "/>
<polygon points="229.2,180 123.8,297 45.8,297 45.8,280.6 136.3,180 "/>
<polygon points="408.5,180 303.1,297 208.9,297 314.3,180 "/>
<polygon points="594,180 488.6,297 388.2,297 493.6,180 "/>
<polygon points="775.7,180 670.3,297 573.8,297 679.2,180 "/>
<polygon points="965.8,180 860.4,297 755.4,297 860.8,180 "/>
<polygon points="1151.7,180 1046.2,297 945.5,297 1050.9,180 "/>
<polygon points="1347.6,180 1242.2,297 1131.4,297 1236.8,180 "/>
<polygon points="1414.9,197.6 1414.9,297 1325.3,297 "/>
</svg>
