<?xml version="1.0" encoding="utf-8"?>
<!-- Generator: Adobe Illustrator 21.1.0, SVG Export Plug-In . SVG Version: 6.00 Build 0)  -->
<svg version="1.1" id="Layer_1" xmlns="http://www.w3.org/2000/svg" xmlns:xlink="http://www.w3.org/1999/xlink" x="0px" y="0px"
	 viewBox="0 0 464.3 390.6" style="enable-background:new 0 0 464.3 390.6;" xml:space="preserve">
<style type="text/css">
	.st0{fill:#97D3CA;}
	.st1{display:none;fill:#FFFFFF;}
	.st2{display:none;}
	.st3{display:inline;opacity:0.5;fill:#09BAB5;stroke:#000000;stroke-width:0.25;stroke-miterlimit:10;enable-background:new    ;}
	.st4{display:inline;fill:url(#SVGID_1_);}
	.st5{display:inline;fill:#26A69A;}
	.st6{display:inline;fill:none;stroke:#26A69A;stroke-width:35;stroke-miterlimit:10;}
	.st7{display:inline;fill:#7ECECE;}
	.st8{display:inline;fill:none;stroke:#7ECECE;stroke-width:30;stroke-miterlimit:10;}
	.st9{display:inline;fill:none;stroke:#7ECECE;stroke-width:20;stroke-miterlimit:10;}
	.st10{display:inline;fill:#6AB7B5;}
	.st11{display:inline;fill:none;stroke:#D6E8E6;stroke-width:12;stroke-miterlimit:10;}
	.st12{display:inline;fill:none;stroke:#26A69A;stroke-width:20;stroke-miterlimit:10;}
	.st13{display:inline;fill:#26A69A;stroke:#FFFFFF;stroke-miterlimit:10;}
	.st14{display:inline;fill:#D6E8E6;}
	.st15{display:inline;}
	.st16{fill:#7ECECE;}
	.st17{display:inline;fill:#26A69A;stroke:#FFFFFF;stroke-width:14;stroke-miterlimit:10;}
	.st18{display:inline;fill:#FFFFFF;}
	.st19{fill:#FFFFFF;}
	.st20{display:inline;fill:none;stroke:#FFFFFF;stroke-width:40;stroke-miterlimit:10;}
	.st21{fill:none;stroke:#448791;stroke-miterlimit:10;}
	.st22{fill:none;stroke:#26A69A;stroke-width:16;stroke-miterlimit:10;}
	.st23{display:inline;fill:none;stroke:#448791;stroke-miterlimit:10;}
	.st24{fill:#26A69A;}
	.st25{fill:none;stroke:#FFFFFF;stroke-width:16;stroke-miterlimit:10;}
	.st26{fill:#DCF7F4;}
	.st27{fill:#D0F4EE;}
	.st28{fill:#AFE2D6;}
	.st29{fill:#DCE5E3;}
	.st30{fill:none;stroke:#C3DDD8;stroke-width:3.7904;stroke-miterlimit:10;}
	.st31{fill:#E8E8E8;}
	.st32{fill:#FCFCFC;}
	.st33{display:inline;fill:#D0F4EE;}
</style>
<path class="st0" d="M202.6,330.6c9.3,2.2,18.9,3.5,28.8,3.7c-1.1,0-2.3,0-3.4,0c-9,0-17.7-0.7-26.2-2.1c-7.6-1.2-15-3-22.1-5.3h0
	c-8.3-2.6-16.2-5.9-23.7-9.7c-4.1-2.1-8.1-4.4-12-6.8h0c-7.1-4.5-13.8-9.5-19.9-15c-2.5-2.3-5-4.6-7.3-7
	c-5.3-5.5-10.2-11.5-14.5-17.8c-1.7-2.5-3.3-5-4.8-7.5c-3.5-5.9-6.5-12.1-9-18.5c-1-2.6-1.9-5.2-2.8-7.9c-1.8-5.9-3.3-11.9-4.2-18.1
	c-0.4-2.7-0.8-5.4-1-8.2c-0.3-3.6-0.5-7.3-0.5-11c0-3.6,0.2-7.1,0.5-10.6c0.2-2.9,0.6-5.7,1-8.6c1.3-8.1,3.3-16,6.1-23.6
	c1.1-3.1,2.4-6.1,3.7-9.1c3.4-7.6,7.6-14.8,12.4-21.6c2.3-3.2,4.7-6.3,7.3-9.3c5.7-6.7,12.1-13,19.1-18.6c4.6-3.7,9.4-7.1,14.4-10.3
	c6.3-4,13-7.5,20-10.5l0,0c9.5-4.1,19.6-7.4,30.2-9.6c10.7-2.3,21.9-3.4,33.3-3.4c1.1,0,2.3,0,3.4,0c-13.4,0.3-26.3,2.5-38.5,6.4h0
	c-4,1.3-7.9,2.7-11.7,4.4l0,0c-7.4,3.1-14.4,6.9-21,11.3c-4.4,2.9-8.6,6-12.7,9.4c-6.7,5.6-12.8,11.8-18.3,18.5
	c-2.4,3-4.8,6.1-6.9,9.3v0c-4.4,6.4-8.2,13.3-11.5,20.4c-1.3,3-2.6,6-3.7,9.1c-2.8,7.6-4.9,15.5-6.3,23.6c-0.5,2.8-0.9,5.7-1.2,8.6
	c-0.5,4.6-0.7,9.3-0.7,14.1c0,2.6,0.1,5.1,0.2,7.6c0.2,2.8,0.4,5.5,0.7,8.2c0.7,6.2,1.9,12.3,3.4,18.2c0.7,2.7,1.5,5.3,2.3,7.9
	c2.1,6.5,4.7,12.8,7.8,18.8c1.3,2.6,2.7,5.1,4.2,7.6c3.8,6.4,8.1,12.5,12.8,18.1c2.1,2.5,4.2,4.9,6.5,7.2
	c5.6,5.8,11.8,11.2,18.4,15.9c3.1,2.3,6.3,4.4,9.7,6.3c7.1,4.2,14.5,7.8,22.3,10.7C192.3,327.8,197.4,329.3,202.6,330.6z"/>
<title>dashboard(ecris)</title>
<rect x="-3.4" y="-5.6" class="st1" width="475" height="406"/>
<g class="st2">
	<rect x="260.2" y="185.3" class="st3" width="65.6" height="164.3"/>
	<rect x="163.3" y="131.4" class="st3" width="70" height="218.2"/>
	<rect x="67.9" y="68.6" class="st3" width="73" height="281"/>
	<rect x="346.5" y="240.5" class="st3" width="62.6" height="109.1"/>
</g>
<g id="Layer_2" class="st2">
</g>
<g class="st2">
	
		<linearGradient id="SVGID_1_" gradientUnits="userSpaceOnUse" x1="72.8747" y1="3034.9058" x2="423" y2="3034.9058" gradientTransform="matrix(1 0 0 1 0 -2828)">
		<stop  offset="0" style="stop-color:#C6E0DC"/>
		<stop  offset="1" style="stop-color:#FFFFFF"/>
	</linearGradient>
	<path class="st4" d="M74.7,304H423c0,0-3.7-38.4-41.5-40c-38.7-1.7-67-72.3-97.7-75.9s-49.8,54.2-73.7,53.2
		c-31-1.4-51-126.1-76.1-130.7s-41.3,10.1-51.7,66.2C67.3,257.7,74.7,304,74.7,304z"/>
</g>
<g class="st2">
	<path class="st5" d="M43.9,354H14.8V72.6c0-3.6,2.8-6.6,6.4-6.6h16.4c3.5,0,6.4,2.9,6.4,6.6L43.9,354L43.9,354z"/>
	<path class="st5" d="M15.8,354v-33h428.1c3.6,0,6.6,3.2,6.6,7.3v18.6c0,4-2.9,7.3-6.6,7.3H15.8V354z"/>
	<path class="st6" d="M404,305.2c0.7-32.2-40.5-30.1-55.9-37.5c-23-11-48-70.1-83.3-67.8c-32.6,2-27.6,40.8-58.5,41.4
		c-49.5,0.9-46.4-119.5-76.5-119.5c-57.8,0-50.5,183.6-50.5,183.6"/>
</g>
<g class="st2">
	<path class="st7" d="M394.2,333.4l-8.4,10.1c-5,6.1-14,6.9-20.1,1.9L241.4,242.2l-1.7-1.4l26.6-32.1l1.7,1.4l124.4,103.1
		C398.4,318.3,399.2,327.3,394.2,333.4z"/>
	<circle class="st8" cx="182.3" cy="157.8" r="111.9"/>
	<path class="st7" d="M247.2,200.5c-14,21.4-38.1,35.5-65.6,35.5c-43.3,0-78.3-35.1-78.3-78.3c0-5.8,0.6-11.4,1.8-16.9
		c8.6,42.6,46.2,74.7,91.3,74.7C215.2,215.5,232.6,210,247.2,200.5z"/>
</g>
<g class="st2">
	<path class="st9" d="M429,198.5v101.6h-44.8l0.7-59.6H80.6L80,300.1H34.6V198.5c0-17.1,13.9-31,31-31H398
		C415.1,167.5,429,181.4,429,198.5z"/>
	<path class="st10" d="M403.7,247.8H59.1v-14.6c0-11.3,9.2-20.5,20.5-20.5h303.6c11.3,0,20.5,9.2,20.5,20.5V247.8z"/>
	<rect x="80.3" y="16" class="st9" width="304.2" height="118.5"/>
	<rect x="80.3" y="240.5" class="st9" width="304.2" height="118.5"/>
</g>
<g class="st2">
	<path class="st5" d="M246.2,315l25.8,14.7c1.8,1,1.6,3.9-0.3,4.9l-29,16.4l-0.6-33.3C242.1,315.5,244.4,314,246.2,315z"/>
	<circle class="st11" cx="216.2" cy="193.8" r="114"/>
	<circle class="st11" cx="214.8" cy="195.9" r="84.8"/>
	<rect x="72" y="15" class="st12" width="286" height="362"/>
	<path class="st5" d="M384.2,140.4l-31.5-18.1c-0.7-0.4-1.7-0.1-2.1,0.7L244.1,308.9c-0.5,0.9-0.3,2,0.6,2.5l31.2,17.8
		c0.8,0.5,1.9,0.1,2.4-0.8l106.4-185.9C385.2,141.8,384.9,140.8,384.2,140.4z M256,310.4l-6.7-3.8l102.6-179.2l6.7,3.8L256,310.4z"
		/>
	<path class="st13" d="M385.2,140.2l-31.1-17.8c-0.9-0.5-1.2-1.6-0.7-2.5L368,94.5c3.3-5.7,10.6-7.7,16.4-4.5l13.4,7.7
		c5.7,3.3,7.7,10.6,4.5,16.4l-14.6,25.5C387.2,140.4,386,140.7,385.2,140.2z"/>
	<path class="st14" d="M220,250.3h-6.4c-22.3,0-40.5-18.2-40.5-40.5V151h87.4v58.8C260.5,232.1,242.3,250.3,220,250.3z"/>
	<rect x="198.1" y="215.2" transform="matrix(0.5 -0.866 0.866 0.5 -38.4966 372.6847)" class="st5" width="210.8" height="9"/>
</g>
<g class="st2">
	<polygon class="st9" points="357,328.7 104.3,328.7 104.3,59.3 308.3,59.3 357,108 	"/>
	<path class="st7" d="M302,169.3H154.7c-6,0-11-4.9-11-11v-2.7c0-6,4.9-11,11-11H302c6.1,0,11,4.9,11,11v2.7
		C313,164.4,308.1,169.3,302,169.3z"/>
	<path class="st7" d="M302,212.7H154.7c-6,0-11-4.9-11-11V199c0-6,4.9-11,11-11H302c6.1,0,11,4.9,11,11v2.7
		C313,207.7,308.1,212.7,302,212.7z"/>
	<path class="st7" d="M271.3,255.3H154.7c-6,0-11-4.9-11-11v-2.7c0-6,4.9-11,11-11h116.7c6,0,11,4.9,11,11v2.7
		C282.3,250.4,277.4,255.3,271.3,255.3z"/>
	<g class="st15">
		<path class="st16" d="M157.3,31.2H40.7v-28h116.7c6.6,0,12,5.4,12,12v4C169.3,25.8,163.9,31.2,157.3,31.2z"/>
		<path class="st16" d="M40.7,120.8V4.2h28v116.7c0,6.6-5.4,12-12,12h-4C46.1,132.8,40.7,127.4,40.7,120.8z"/>
		<path class="st16" d="M306.3,32.2H423v-28H306.3c-6.6,0-12,5.4-12,12v4C294.3,26.8,299.7,32.2,306.3,32.2z"/>
		<path class="st16" d="M423,121.8V5.2h-28v116.7c0,6.6,5.4,12,12,12h4C417.6,133.8,423,128.4,423,121.8z"/>
		<path class="st16" d="M306.3,362.7H423v28H306.3c-6.6,0-12-5.4-12-12v-4C294.3,368.1,299.7,362.7,306.3,362.7z"/>
		<path class="st16" d="M423,273v116.7h-28V273c0-6.6,5.4-12,12-12h4C417.6,261,423,266.4,423,273z"/>
		<path class="st16" d="M156.7,359.8H40v28h116.7c6.6,0,12-5.4,12-12v-4C168.7,365.2,163.3,359.8,156.7,359.8z"/>
		<path class="st16" d="M40,270.2v116.7h28V270.2c0-6.6-5.4-12-12-12h-4C45.4,258.2,40,263.6,40,270.2z"/>
	</g>
</g>
<g class="st2">
	<path class="st5" d="M337.2,331h-233c-18.7,0-34-12.7-34-28.2v-58c0-35.7,35.2-64.7,78-64.7h122.7c43,0,78,29.2,78,64.7v76.5
		C349,326.6,343.7,331,337.2,331z"/>
	<circle class="st5" cx="209.5" cy="85.8" r="81.4"/>
	<circle class="st17" cx="318.9" cy="275.9" r="109.1"/>
	<path class="st18" d="M226.1,282.8V271c0-9.3,7.6-17,17-17h153.6c9.3,0,17,7.6,17,17v11.8c0,9.3-7.6,17-17,17H243.1
		C233.7,299.8,226.1,292.1,226.1,282.8z"/>
	<path class="st18" d="M326.3,366.1H315c-9,0-16.3-7.3-16.3-16.3V202.5c0-9,7.3-16.3,16.3-16.3h11.3c9,0,16.3,7.3,16.3,16.3v147.3
		C342.6,358.8,335.2,366.1,326.3,366.1z"/>
</g>
<g class="st2">
	<g class="st15">
		<circle class="st19" cx="233.3" cy="106.7" r="94.2"/>
	</g>
	<path class="st18" d="M389.6,283.3v37.2c0,33.6-27.5,61.1-61.1,61.1H143.2c-33.6,0-61.1-27.5-61.1-61.1v-37.2
		c0-45.3,37-82.3,82.3-82.3h5.5c16.9,14.2,38.8,22.7,62.6,22.7s45.6-8.5,62.6-22.7h12.2C352.5,200.9,389.6,238,389.6,283.3z"/>
</g>
<g class="st2">
	<circle class="st20" cx="231.9" cy="192.7" r="156.3"/>
	<path class="st18" d="M236.2,209.4h-14.5c-7.4,0-13.4-6-13.4-13.4V87.1c0-7.4,6-13.4,13.4-13.4h7c7.4,0,13.4,6,13.4,13.4v116.2
		C242.2,206.7,239.6,209.4,236.2,209.4z"/>
	<path class="st18" d="M212.9,201.3l4.6-13.7c2.3-7,10-10.8,17-8.5l85.4,28.4c7,2.3,10.8,10,8.5,17l-2.2,6.7c-2.3,7-10,10.8-17,8.5
		l-92.4-30.8C213.6,207.9,211.9,204.5,212.9,201.3z"/>
</g>
<g class="st2">
	<g class="st15">
		<path class="st21" d="M304.3,69.3"/>
		<g>
			<circle class="st22" cx="147" cy="86.2" r="73.3"/>
		</g>
		<path class="st22" d="M217.9,171.5c-3.6-0.6-7.2-1-10.9-1h-9.5c-13.2,11-37.2,17.6-55.7,17.6s-28.5-6.6-41.7-17.6h-4.3
			c-37.9,0-64.1,28.8-64.1,64.1v29c0,26.1,21.4,47.5,47.5,47.5h90.9v-27.3c0-37.8,35.1-70.1,72.8-70.1
			C243.1,213.7,225.5,196.4,217.9,171.5z"/>
		<g>
			<g>
				<circle class="st22" cx="312.4" cy="149.3" r="73.3"/>
			</g>
			<path class="st22" d="M370,234.6h-9.5c-13.2,11-30.2,17.6-48.7,17.6s-35.5-6.6-48.7-17.6h-4.3c-35.2,0-64.1,28.8-64.1,64.1v29
				c0,26.1,21.4,47.5,47.5,47.5h144.2c26.2,0,47.5-21.4,47.5-47.5v-29C434,263.5,405.2,234.6,370,234.6z"/>
		</g>
	</g>
	<polygon class="st5" points="314,361.5 287,336.5 314.4,270 341,337.5 	"/>
	<polygon class="st5" points="297.6,263.2 330.4,263.2 314,279.6 	"/>
	<path class="st5" d="M155.6,283.8c0,3.3,0.2,6.6,0.4,9.8l-6.2,5.5l-27-25l27.4-66.5l13.9,35.2C158.8,254,155.6,268.3,155.6,283.8z"
		/>
	<polygon class="st5" points="133.3,202.7 166.2,202.7 149.8,219.2 	"/>
</g>
<g class="st2">
	<path class="st23" d="M220.5-19"/>
	<g class="st15">
		<circle class="st24" cx="231.3" cy="102.5" r="97.1"/>
	</g>
	<path class="st5" d="M307.5,199.9h-12.6c-17.5,14.6-39.9,23.3-64.4,23.3s-47-8.8-64.4-23.3h-5.6c-46.7,0-84.8,38.2-84.8,84.8v38.4
		c0,34.6,28.3,62.9,62.9,62.9h190.9c34.6,0,62.9-28.3,62.9-62.9v-38.4C392.3,238.1,354.1,199.9,307.5,199.9z M233.4,367.8
		l-35.7-33.1l32.4-78.6l-18.4-18.4h43.5l-17.8,17.8l31.7,80.6L233.4,367.8z"/>
</g>
<g class="st2">
	<g class="st15">
		<path class="st21" d="M220.8,6.3"/>
		<g>
			<g>
				<circle class="st25" cx="230.6" cy="103.5" r="89.1"/>
			</g>
			<path class="st25" d="M300.6,207.2H289c-16,13.4-36.7,21.4-59.2,21.4s-43.1-8-59.2-21.4h-5.2c-42.8,0-77.9,35-77.9,77.9v35.2
				c0,31.7,26,57.7,57.7,57.7h175.2c31.8,0,57.7-26,57.7-57.7v-35.2C378.3,242.3,343.3,207.2,300.6,207.2z"/>
		</g>
	</g>
	<polygon class="st18" points="232.5,361.4 199.7,331 233,250.2 265.3,332.2 	"/>
	<polygon class="st18" points="212.6,241.9 252.5,241.9 232.5,261.8 	"/>
</g>
<g class="st2">
	<path class="st5" d="M68,59.3h260c3.5,0,6.5,1.8,8.2,4.6l2.8-5.8c1.3-2.8,4.6-3.9,7.4-2.5l23.3,11.5v-6.9l-22.3-11
		c-1.8-0.9-2.5-3.1-1.7-4.9l9.4-19.1H36.3c-6.6,0-12,5.4-12,12v312.2c0,6.6,5.4,12,12,12h172.9l-7.9-22.7l-0.1-0.1l2.3-4.5l4.3,2.2
		l4.5,2.3l6.6,3.3l39.4,19.6h99.6c6.6,0,12-5.4,12-12V143.9l-32.1,65v112.6c0,5.3-4.4,9.7-9.7,9.7h-50.6l-13.6,27.6
		c-0.3,0.7-1.1,0.9-1.8,0.6l-44.9-22.2l-4.9-2.4l-6.5-3.2c-0.1-0.1-0.3-0.2-0.4-0.3H68c-5.3,0-9.7-4.4-9.7-9.7V69
		C58.3,63.6,62.7,59.3,68,59.3z"/>
	<path class="st5" d="M396.6,66.6l-40.3-19.9c-1.4-0.7-2-2.4-1.3-3.7l12-24.4c2.5-5,8.6-7.1,13.7-4.6l27,13.3
		c5,2.5,7.1,8.6,4.6,13.7l-12,24.4C399.6,66.7,397.9,67.3,396.6,66.6z"/>
	<path class="st5" d="M209.4,344.1l42.4,21.1c0.8,0.4,0.7,1.6-0.1,1.8l-28.3,9.5c-2.4,0.9-5.1-0.5-5.9-2.9l-9.5-28.3
		C207.7,344.5,208.6,343.8,209.4,344.1z"/>
	<path class="st5" d="M252.6,348.4L218.1,331c-2.3-1.2-3.2-4-2.1-6.3L344.4,69.2c1.2-2.3,4-3.2,6.3-2.1l34.5,17.4
		c2.3,1.2,3.2,4,2.1,6.3L258.9,346.3C257.7,348.6,254.9,349.5,252.6,348.4z"/>
	<circle class="st5" cx="153.8" cy="126.2" r="43.2"/>
	<path class="st5" d="M221.7,205.7v17c0,13.5-11.1,24.6-24.6,24.6h-86.8c-13.5,0-24.6-11.1-24.6-24.6v-17
		c0-17.8,14.5-32.3,32.3-32.3h10.8c7.1,5,15.7,8,25,8s18-3,25-8h10.5C207.1,173.3,221.7,187.9,221.7,205.7z"/>
	<path class="st5" d="M214,285H97.7c-6.6,0-12-5.4-12-12v-1c0-6.6,5.4-12,12-12H214c6.6,0,12,5.4,12,12v1
		C226,279.6,220.6,285,214,285z"/>
</g>
<ellipse class="st26" cx="238.7" cy="199.3" rx="133.7" ry="133.2"/>
<g>
	<rect x="182.8" y="105.1" class="st27" width="33.4" height="201.7"/>
	<path class="st27" d="M263.8,104.1h-55.5c-6.4,0-12.5,1.1-18.3,3.1v32.1c6.4-5.9,15-9.6,24.4-9.6h42.8c19.8,0,36,16.2,36,36v6.6
		c0,19.8-16.2,36-36,36h-42.8c-9.4,0-18-3.6-24.4-9.6v30.1c5.7,2,11.9,3.1,18.3,3.1h55.5c30.4,0,55.2-24.8,55.2-55.2v-17.5
		C319,128.9,294.1,104.1,263.8,104.1z"/>
	<rect x="163" y="143.2" class="st27" width="170.7" height="21.4"/>
	<rect x="163" y="177.8" class="st27" width="170.7" height="21.4"/>
</g>
<path class="st0" d="M216,189.7c0,5.3-9,9.6-20.2,9.6s-20.2-4.3-20.2-9.6c0-0.3,0-0.7,0.1-1h40.2C216,189,216,189.4,216,189.7z"/>
<path class="st0" d="M324,188.7c-0.4,5.8-7.9,10.4-17,10.4s-16.6-4.6-17-10.4H324z"/>
<path class="st28" d="M110.9,143.9c-1.3,3-2.6,6-3.7,9.1l-19.6,3.6c1.1-3.1,2.4-6.1,3.7-9.1L110.9,143.9z"/>
<path class="st28" d="M129.3,114.2c-2.4,3-4.8,6.1-6.9,9.3v0l-18.6,2.4c2.3-3.2,4.7-6.3,7.3-9.3L129.3,114.2z"/>
<path class="st28" d="M160.6,85.6c-0.2,0.2-0.3,0.5-0.4,0.7c-4.4,2.9-8.6,6-12.7,9.4L130.1,98c4.6-3.7,9.4-7.1,14.4-10.3L160.6,85.6
	z"/>
<path class="st28" d="M194.7,67.7c-0.6,1-1.2,2-1.7,3h0c-4,1.3-7.9,2.7-11.7,4.4l0,0l-16.7,2.2C174,73.1,184.1,69.9,194.7,67.7z"/>
<path class="st28" d="M165.1,315.3c-0.2,0.3-0.3,0.6-0.4,0.8l-8.7,1.1c-4.1-2.1-8.1-4.4-12-6.8l11.5-1.5
	C158.5,311.2,161.7,313.3,165.1,315.3z"/>
<path class="st28" d="M202.6,330.6c-0.3,0.5-0.6,1.1-0.9,1.6c-7.6-1.2-15-3-22.1-5.3l7.8-1C192.3,327.8,197.4,329.3,202.6,330.6z"/>
<path class="st28" d="M100.9,176.6c-0.5,2.8-0.9,5.7-1.2,8.6l-19.3,3.5c0.2-2.9,0.6-5.7,1-8.6L100.9,176.6z"/>
<path class="st28" d="M99.9,215.1l-18.4,3.4c-0.4-2.7-0.8-5.4-1-8.2l18.7-3.4C99.4,209.7,99.6,212.4,99.9,215.1z"/>
<path class="st28" d="M105.7,241.3l-17.2,3.1c-1-2.6-1.9-5.2-2.8-7.9l17.6-3.2C104.1,236,104.8,238.7,105.7,241.3z"/>
<path class="st28" d="M117.7,267.7l-15.4,2.8c-1.7-2.5-3.3-5-4.8-7.5l16-2.9C114.8,262.7,116.2,265.2,117.7,267.7z"/>
<path class="st28" d="M137,293l-12.9,2.4c-2.5-2.3-5-4.6-7.3-7l13.7-2.5C132.5,288.3,134.7,290.7,137,293z"/>
<ellipse class="st29" cx="232.5" cy="366.3" rx="108.2" ry="13.1"/>
<polygon class="st0" points="243.4,257.4 258.4,238.9 273.4,257.4 258.4,248.1 "/>
<ellipse class="st30" cx="238.5" cy="199" rx="126.7" ry="126.2"/>
<path class="st31" d="M353.7,105.2c0,0,1.7,15.8-6,25.6c-4.6,5.9-14.5,7.9-25,7.9c0,0,30.3-3.5,29.7,33.4c0,0,3-15.8,11.3-25.4
	c5.8-6.7,15.1-8.1,24.7-8.1C388.3,138.7,353.7,138.7,353.7,105.2z"/>
<path class="st32" d="M346,104.2c0,0,1.7,15.8-6,25.6c-4.6,5.9-14.5,7.9-25,7.9c0,0,30.3-3.5,29.7,33.4c0,0,3-15.8,11.3-25.4
	c5.8-6.7,15.1-8.1,24.7-8.1C380.7,137.7,346,137.7,346,104.2z"/>
<g class="st2">
	<rect x="180.8" y="61.1" class="st33" width="33.4" height="201.7"/>
	<path class="st33" d="M261.8,60.1h-55.5c-6.4,0-12.5,1.1-18.3,3.1v32.1c6.4-5.9,15-9.6,24.4-9.6h42.8c19.8,0,36,16.2,36,36v6.6
		c0,19.8-16.2,36-36,36h-42.8c-9.4,0-18-3.6-24.4-9.6v30.1c5.7,2,11.9,3.1,18.3,3.1h55.5c30.4,0,55.2-24.8,55.2-55.2v-17.5
		C317,84.9,292.1,60.1,261.8,60.1z"/>
	<rect x="161" y="99.2" class="st33" width="170.7" height="21.4"/>
	<rect x="161" y="133.8" class="st33" width="170.7" height="21.4"/>
</g>
</svg>
