<svg id="Layer_1" data-name="Layer 1" xmlns="http://www.w3.org/2000/svg" viewBox="0 0 572.54 293.36"><defs><style>.cls-1{opacity:0.75;}.cls-2,.cls-24{font-size:193.36px;font-family:MyriadPro-BoldIt, Myriad Pro;font-style:italic;}.cls-2,.cls-3,.cls-4,.cls-5{fill:#020202;}.cls-10,.cls-2,.cls-23,.cls-24,.cls-3,.cls-4,.cls-5,.cls-7,.cls-8,.cls-9{stroke:#000;stroke-miterlimit:10;}.cls-10,.cls-12,.cls-2,.cls-24,.cls-3,.cls-4,.cls-9{font-weight:700;}.cls-3,.cls-9{font-size:188.8px;}.cls-10,.cls-12,.cls-3,.cls-4,.cls-9{font-family:MyriadPro-Bold, Myriad Pro;}.cls-10,.cls-4{font-size:137.76px;}.cls-6{opacity:0.7;}.cls-7,.cls-8{stroke-width:2px;}.cls-8{fill:#2ba9af;}.cls-10,.cls-23,.cls-24,.cls-9{fill:#146375;}.cls-11{fill:#0d495c;}.cls-12{font-size:16px;fill:#105151;}.cls-13{letter-spacing:-0.02em;}.cls-14{letter-spacing:0em;}.cls-15{letter-spacing:-0.01em;}.cls-16{letter-spacing:-0.01em;}.cls-17{letter-spacing:0em;}.cls-18{letter-spacing:-0.01em;}.cls-19{letter-spacing:0em;}.cls-20{letter-spacing:-0.01em;}.cls-21{letter-spacing:-0.02em;}.cls-22{letter-spacing:-0.01em;}</style></defs><title>ubilis 1.0</title><g class="cls-1"><text class="cls-2" transform="translate(493 176.66) rotate(0.39) scale(0.97 1)">s</text></g><g class="cls-1"><text class="cls-3" transform="translate(336.32 174.2) rotate(0.39) scale(0.97 1)">i</text></g><g class="cls-1"><text class="cls-4" transform="matrix(1.21, 0.01, -0.01, 1, 372.04, 175.26)">L</text></g><g class="cls-1"><text class="cls-3" transform="translate(447.64 175.01) rotate(0.39) scale(0.97 1)">i</text></g><g class="cls-1"><path class="cls-5" d="M349.3,245.92v74.79h24.13V239.24h10.39s14.48,1.48,15.4,15.59v12.62s-2.32,12.25-14.94,14.29l-7.05.09L377,288.6l16.33-.09s26.07-2,32.11-24c0,0,7.24-27.37-26.54-30.43l-63.38-.93v5.29S349.3,239.05,349.3,245.92Z" transform="translate(-89.67 -154.41)"/><path class="cls-5" d="M401.07,290.09s14.48-4.45,15.5-7a24.42,24.42,0,0,1,15.31,25.33s-.65,19.76-36,21.71H335.56v-6.31l55.21.09s10.58.19,14.48-16.7C405.25,307.25,406.46,292.68,401.07,290.09Z" transform="translate(-89.67 -154.41)"/></g><g class="cls-6"><path class="cls-7" d="M188.67,262l20.32.14a14,14,0,0,1,13.91,14.1l-.48,70.84a14,14,0,0,1-6.2,11.54c-7.85,5.27-22.28,10.8-37.81-3.9a13.91,13.91,0,0,1-4.3-10.2l.47-68.61A14,14,0,0,1,188.67,262Z" transform="translate(-89.67 -154.41)"/><path class="cls-7" d="M251.76,255.28a4.84,4.84,0,0,1,5.06,4.58l-.55,81c0,3.2-7,14.66-20,22.76-4.2,2.63-1.88,8.53,3.24,8.25,9.49-.52,19.83-1.92,27.47-5.18a5.53,5.53,0,0,1,1.64-.43c4.94-.49,31.08-5.09,29.43-47.67l.49-58.43a4.84,4.84,0,0,1,5.12-4.5h0c4.31,0,6.7-4.44,4-7.42L280.29,218.4a5.48,5.48,0,0,0-7.88,0l-26.89,29.44c-2.7,3-.36,7.39,3.91,7.42Z" transform="translate(-89.67 -154.41)"/></g><path class="cls-8" d="M185.67,262l20.32.14a14,14,0,0,1,13.91,14.1l-.48,70.84a14,14,0,0,1-6.2,11.54c-7.85,5.27-22.28,10.8-37.81-3.9a13.91,13.91,0,0,1-4.3-10.2l.47-68.61A14,14,0,0,1,185.67,262Z" transform="translate(-89.67 -154.41)"/><path class="cls-8" d="M248.76,255.28a4.84,4.84,0,0,1,5.06,4.58l-.55,81c0,3.2-7,14.66-20,22.76-4.2,2.63-1.88,8.53,3.24,8.25,9.49-.52,19.83-1.92,27.47-5.18a5.53,5.53,0,0,1,1.64-.43c4.94-.49,31.08-5.09,29.43-47.67l.49-58.43a4.84,4.84,0,0,1,5.12-4.5h0c4.31,0,6.7-4.44,4-7.42L277.29,218.4a5.48,5.48,0,0,0-7.88,0l-26.89,29.44c-2.7,3-.36,7.39,3.91,7.42Z" transform="translate(-89.67 -154.41)"/><text class="cls-9" transform="translate(334.64 174.1) rotate(0.39) scale(0.97 1)">i</text><text class="cls-10" transform="matrix(1.21, 0.01, -0.01, 1, 370.04, 174.97)">L</text><path class="cls-11" d="M620,337.82v4.49q-122.75,0-245.47,0c-2.39,0-3.45.56-4.3,3.09-16.48,49.05-48.84,81.82-97.63,96.57-63.76,19.28-132.95-10.45-165-70a151.77,151.77,0,0,1-17.26-56.07c-.07-.64.23-1.46-.62-1.84v-26.6a147.54,147.54,0,0,1,3.46-22.27c6.42-24.94,18.06-46.87,35.56-65.6a143.73,143.73,0,0,1,69.84-41.69,136.89,136.89,0,0,1,22.14-3.45h23.11c3.78.57,7.57,1.13,11.35,1.72,23.92,3.64,45.4,13.17,64.79,27.81,1.88,1.41,1.84,2.16.15,3.74-4.36,4.05-4.22,4.06-9,.64-19.33-13.73-40.63-22.26-64.19-24.29-47.22-4.05-86.26,12.54-117.37,48.89-1.41,1.65-1.72,2.62.17,4.26,4.14,3.57,7.93,7.56,12,11.21,1.57,1.39,1.84,2.32.52,4.13-15.1,20.88-22.41,44.38-22.15,70.29.45,46.82,29.69,89.44,72.65,106.13,55.45,21.52,117.34-3.6,142.87-58a97.72,97.72,0,0,0,4.28-10.6c.67-2,1.63-2.77,3.62-2.46a14.06,14.06,0,0,0,2.07,0Z" transform="translate(-89.67 -154.41)"/><text class="cls-12" transform="translate(281.5 204.4)">Unified Business <tspan class="cls-13" x="120.56" y="0">P</tspan><tspan x="129.47" y="0">ermit </tspan><tspan class="cls-14" x="171.25" y="0">I</tspan><tspan x="175.85" y="0">n</tspan><tspan class="cls-15" x="185.23" y="0">f</tspan><tspan x="190.53" y="0">orm</tspan><tspan class="cls-16" x="219.6" y="0">a</tspan><tspan class="cls-17" x="227.92" y="0">tion,</tspan><tspan x="0" y="19.2">Li</tspan><tspan class="cls-18" x="12.56" y="19.2">c</tspan><tspan x="19.6" y="19.2">ensing and </tspan><tspan class="cls-19" x="101.31" y="19.2">I</tspan><tspan class="cls-17" x="105.82" y="19.2">ssuan</tspan><tspan class="cls-18" x="146.86" y="19.2">c</tspan><tspan x="153.9" y="19.2">e </tspan><tspan class="cls-20" x="165.58" y="19.2">S</tspan><tspan class="cls-21" x="173.98" y="19.2">y</tspan><tspan x="182.09" y="19.2">s</tspan><tspan class="cls-22" x="189.04" y="19.2">t</tspan><tspan x="194.83" y="19.2">em</tspan></text><path class="cls-23" d="M346.73,245.83v74.79h24.13V239.15h10.39s14.48,1.48,15.4,15.59v12.62s-2.32,12.25-14.94,14.29l-7.05.09-.19,6.77,16.33-.09s26.07-2,32.11-24c0,0,7.24-27.37-26.54-30.43L333,233v5.29S346.73,239,346.73,245.83Z" transform="translate(-89.67 -154.41)"/><path class="cls-23" d="M398.51,290s14.48-4.45,15.5-7a24.42,24.42,0,0,1,15.31,25.33s-.65,19.76-36,21.71H333v-6.31l55.21.09s10.58.19,14.48-16.7C402.68,307.17,403.89,292.6,398.51,290Z" transform="translate(-89.67 -154.41)"/><text class="cls-9" transform="translate(445.64 175.1) rotate(0.39) scale(0.97 1)">i</text><text class="cls-24" transform="translate(491 175.66) rotate(0.39) scale(0.97 1)">s</text></svg>